<!DOCTYPE svg PUBLIC "-//W3C//DTD SVG 20010904//EN" "http://www.w3.org/TR/2001/REC-SVG-20010904/DTD/svg10.dtd">
<svg version="1.0" xmlns="http://www.w3.org/2000/svg" width="166px" height="142px" viewBox="0 0 1660 1420" preserveAspectRatio="xMidYMid meet">
<g id="layer101" fill="#ffffff" stroke="none">
 <path d="M214 1366 c-6 -7 -17 -23 -24 -37 -7 -13 -21 -31 -32 -40 -10 -9 -18 -24 -18 -33 0 -9 -4 -16 -8 -16 -10 0 -52 -85 -52 -105 0 -8 -4 -15 -9 -15 -9 0 -10 -3 -35 -115 -18 -80 -22 -330 -6 -340 6 -3 10 -21 10 -40 0 -19 4 -37 10 -40 5 -3 10 -17 10 -30 0 -13 5 -27 10 -30 6 -3 10 -15 10 -26 0 -10 5 -19 10 -19 6 0 10 -9 10 -20 0 -11 5 -20 10 -20 6 0 10 -9 10 -20 0 -11 5 -20 10 -20 6 0 10 -6 10 -14 0 -7 13 -27 30 -44 17 -18 30 -35 30 -40 0 -10 93 -102 103 -102 4 0 21 -14 39 -30 17 -17 37 -30 44 -30 8 0 14 -4 14 -8 0 -12 78 -52 101 -52 10 0 19 -4 19 -10 0 -5 9 -10 19 -10 11 0 23 -4 26 -10 3 -5 17 -10 30 -10 13 0 26 -4 29 -9 7 -11 123 -25 206 -25 83 0 199 14 206 25 3 5 18 9 35 9 16 0 29 5 29 10 0 6 8 10 19 10 25 0 170 75 191 100 10 11 22 20 28 20 14 0 142 128 142 142 0 6 9 18 20 28 24 21 100 166 100 191 0 10 5 21 10 24 6 3 10 21 10 39 0 17 5 37 12 44 16 16 16 338 -1 355 -6 6 -11 26 -11 44 0 18 -4 33 -10 33 -5 0 -10 9 -10 19 0 11 -4 23 -10 26 -5 3 -10 17 -10 31 0 13 -4 24 -10 24 -5 0 -10 9 -10 20 0 11 -4 20 -8 20 -5 0 -15 12 -23 28 -8 15 -22 36 -31 46 -10 11 -18 24 -18 28 0 10 -46 58 -55 58 -3 0 -5 -18 -5 -40 0 -22 -4 -40 -9 -40 -5 0 -11 -13 -14 -28 -6 -30 -57 -92 -76 -92 -6 0 -11 -4 -11 -10 0 -5 -7 -10 -15 -10 -20 0 -19 -9 3 -29 22 -21 62 -98 62 -121 0 -11 5 -22 10 -25 13 -8 13 -59 0 -99 -5 -17 -15 -52 -22 -78 -7 -27 -16 -48 -20 -48 -4 0 -8 -9 -8 -20 0 -11 -4 -20 -10 -20 -5 0 -10 -7 -10 -16 0 -9 -8 -24 -18 -33 -31 -27 -42 -57 -42 -115 l0 -56 -34 0 c-19 0 -38 5 -41 10 -3 6 -17 10 -30 10 -13 0 -27 4 -30 10 -3 5 -17 10 -30 10 -13 0 -27 5 -30 10 -3 6 -17 10 -30 10 -13 0 -27 5 -30 10 -3 6 -17 10 -30 10 -13 0 -27 5 -30 10 -3 6 -17 10 -30 10 -13 0 -27 4 -30 10 -8 13 -95 13 -95 0 0 -5 -16 -10 -35 -10 -19 0 -35 -4 -35 -10 0 -5 -13 -10 -30 -10 -16 0 -30 -4 -30 -10 0 -5 -13 -10 -30 -10 -16 0 -30 -4 -30 -10 0 -5 -13 -10 -30 -10 -16 0 -30 -4 -30 -10 0 -5 -13 -10 -30 -10 -16 0 -30 -4 -30 -10 0 -5 -11 -10 -25 -10 -14 0 -25 -4 -25 -10 0 -5 13 -10 29 -10 17 0 33 5 36 10 3 6 17 10 30 10 13 0 27 4 30 10 3 5 17 10 30 10 13 0 27 5 30 10 3 6 17 10 30 10 13 0 27 5 30 10 3 6 17 10 30 10 13 0 27 5 30 10 3 6 21 10 40 10 19 0 37 4 40 10 8 13 75 13 75 0 0 -5 14 -10 30 -10 17 0 30 -4 30 -10 0 -5 14 -10 30 -10 17 0 30 -4 30 -10 0 -5 14 -10 30 -10 17 0 30 -4 30 -10 0 -5 14 -10 30 -10 17 0 30 -4 30 -10 0 -5 14 -10 30 -10 17 0 30 -4 30 -10 0 -5 11 -10 24 -10 14 0 28 -4 31 -10 3 -6 22 -10 41 -10 19 0 34 -4 34 -10 0 -5 14 -10 30 -10 17 0 30 -4 30 -10 0 -5 8 -10 19 -10 10 0 24 -6 30 -14 18 -22 2 -46 -30 -46 -16 0 -29 -4 -29 -10 0 -5 -13 -10 -30 -10 -16 0 -30 -4 -30 -10 0 -5 -13 -10 -30 -10 -16 0 -30 -4 -30 -10 0 -5 -13 -10 -30 -10 -16 0 -30 -4 -30 -10 0 -5 -13 -10 -30 -10 -16 0 -30 -4 -30 -10 0 -5 -13 -10 -30 -10 -16 0 -30 -4 -30 -10 0 -5 -13 -10 -30 -10 -16 0 -30 -4 -30 -10 0 -5 -13 -10 -30 -10 -16 0 -30 -4 -30 -10 0 -5 -13 -10 -30 -10 -16 0 -30 -4 -30 -10 0 -13 -97 -13 -105 0 -3 6 -17 10 -30 10 -13 0 -27 5 -30 10 -3 6 -17 10 -30 10 -13 0 -27 5 -30 10 -3 6 -17 10 -30 10 -13 0 -27 5 -30 10 -3 6 -17 10 -30 10 -13 0 -27 5 -30 10 -3 6 -17 10 -30 10 -13 0 -27 5 -30 10 -3 6 -17 10 -30 10 -13 0 -27 4 -30 10 -3 5 -17 10 -30 10 -13 0 -27 5 -30 10 -3 6 -17 10 -30 10 -13 0 -27 5 -30 10 -3 6 -17 10 -31 10 -14 0 -27 7 -30 15 -8 21 14 45 42 45 12 0 26 5 29 10 3 6 17 10 30 10 13 0 27 4 30 10 3 5 18 10 32 10 25 0 25 1 10 18 -12 13 -17 37 -17 86 0 53 -4 71 -20 88 -11 12 -20 28 -20 35 0 7 -4 13 -10 13 -5 0 -10 9 -10 20 0 11 -4 20 -10 20 -5 0 -10 9 -10 19 0 11 -4 23 -10 26 -5 3 -10 21 -10 40 0 19 -4 37 -10 40 -13 8 -13 92 0 100 6 3 10 22 10 41 0 19 5 34 10 34 6 0 10 9 10 20 0 11 4 20 8 20 5 0 15 12 23 28 8 15 18 30 24 34 6 5 -7 23 -32 46 -54 50 -83 103 -83 152 0 41 -7 48 -26 26z"/>
 <path d="M814 1166 c-22 -25 -44 -75 -44 -101 0 -33 -10 -32 -48 5 -18 17 -41 30 -51 30 -11 0 -23 5 -26 10 -3 6 -26 10 -51 10 -24 0 -44 -4 -44 -10 0 -5 -9 -10 -20 -10 -11 0 -20 -4 -20 -10 0 -5 -5 -10 -11 -10 -14 0 -32 -19 -49 -49 -15 -29 -16 -164 -1 -169 6 -2 11 -9 11 -16 0 -7 9 -21 20 -31 21 -19 28 -75 10 -75 -5 0 -10 -4 -10 -10 0 -5 24 -10 54 -10 30 0 58 5 61 10 3 6 19 10 35 10 51 0 150 69 150 105 0 8 5 15 10 15 6 0 10 23 10 50 0 28 -4 50 -10 50 -5 0 -10 -21 -10 -46 0 -26 -6 -52 -14 -60 -21 -20 -26 -18 -26 11 0 42 -41 75 -93 75 -37 0 -46 -4 -55 -25 -19 -40 -15 -85 9 -106 11 -10 18 -22 15 -28 -6 -9 -46 -3 -56 8 -3 3 -14 11 -25 17 -11 6 -24 20 -30 32 -5 12 -13 22 -17 22 -5 0 -8 9 -8 19 0 11 -4 23 -10 26 -13 8 -13 52 0 60 6 3 10 15 10 26 0 21 30 55 68 77 35 20 119 15 144 -8 12 -11 27 -20 33 -20 6 0 17 -15 25 -34 13 -34 13 -34 65 -29 l52 6 -5 -52 c-3 -34 -1 -51 7 -51 6 0 11 13 11 29 0 17 5 33 10 36 6 3 10 15 10 27 0 21 48 73 88 96 12 6 44 12 72 12 44 0 55 -4 83 -33 61 -63 72 -109 41 -169 -19 -36 -58 -78 -74 -78 -5 0 -10 -4 -10 -10 0 -5 -11 -10 -24 -10 -19 0 -23 4 -19 20 3 11 9 20 14 20 15 0 10 90 -5 106 -20 19 -93 18 -114 -2 -9 -9 -18 -35 -21 -57 -6 -38 -7 -40 -23 -24 -21 21 -28 21 -28 1 0 -24 70 -84 97 -84 13 0 23 -4 23 -10 0 -5 13 -10 29 -10 17 0 33 -4 36 -10 3 -5 31 -10 61 -10 30 0 54 5 54 10 0 6 -4 10 -10 10 -18 0 -11 55 10 70 11 8 20 22 20 31 0 10 6 19 13 22 8 2 12 28 11 85 -2 78 -3 81 -38 116 -19 20 -44 36 -55 36 -11 0 -23 5 -26 10 -3 6 -26 10 -51 10 -24 0 -44 -4 -44 -10 0 -5 -10 -10 -23 -10 -12 0 -29 -9 -37 -20 -8 -11 -20 -20 -27 -20 -7 0 -13 -4 -13 -10 0 -5 -5 -10 -11 -10 -5 0 -7 5 -3 11 9 15 -51 131 -68 129 -2 -1 -8 -7 -14 -14z"/>
 </g>

</svg>